<?xml version="1.0"?>
<!-- Generated by SVGo -->
<svg width="500" height="300"
     xmlns="http://www.w3.org/2000/svg" 
     xmlns:xlink="http://www.w3.org/1999/xlink">
<circle cx="81" cy="87" r="1" style="fill:green"/>
<circle cx="347" cy="59" r="1" style="fill:green"/>
<circle cx="81" cy="18" r="1" style="fill:green"/>
<circle cx="425" cy="140" r="1" style="fill:green"/>
<circle cx="456" cy="0" r="1" style="fill:green"/>
<circle cx="194" cy="211" r="1" style="fill:green"/>
<circle cx="162" cy="89" r="1" style="fill:green"/>
<circle cx="228" cy="74" r="1" style="fill:green"/>
<circle cx="211" cy="245" r="1" style="fill:green"/>
<circle cx="237" cy="206" r="1" style="fill:green"/>
<circle cx="495" cy="66" r="1" style="fill:green"/>
<circle cx="28" cy="58" r="1" style="fill:green"/>
<circle cx="47" cy="247" r="1" style="fill:green"/>
<circle cx="287" cy="88" r="1" style="fill:green"/>
<circle cx="290" cy="15" r="1" style="fill:green"/>
<circle cx="41" cy="108" r="1" style="fill:green"/>
<circle cx="387" cy="131" r="1" style="fill:green"/>
<circle cx="429" cy="56" r="1" style="fill:green"/>
<circle cx="237" cy="31" r="1" style="fill:green"/>
<circle cx="485" cy="126" r="1" style="fill:green"/>
</svg>